<svg width="1220" height="722" viewBox="0 0 1220 722" fill="none" xmlns="http://www.w3.org/2000/svg">
<mask id="mask0_40_2857" style="mask-type:alpha" maskUnits="userSpaceOnUse" x="0" y="0" width="1220" height="722">
<rect width="1220" height="722" fill="#D9D9D9"/>
</mask>
<g mask="url(#mask0_40_2857)">
<path d="M1238.55 787.035H-18.5507C-30.9477 787.035 -41 776.982 -41 764.586V-43.5507C-41 -55.9477 -30.9477 -66 -18.5507 -66H1238.55C1250.95 -66 1261 -55.9477 1261 -43.5507V764.586C1261 776.985 1250.95 787.035 1238.55 787.035Z" fill="#73AF00"/>
<path d="M598.327 53.3493L125.193 341.343C110.823 350.088 110.823 370.945 125.193 379.693L598.327 667.689C605.496 672.052 614.5 672.052 621.671 667.689L1094.81 379.695C1109.18 370.95 1109.18 350.093 1094.81 341.345L621.671 53.3493C614.503 48.9856 605.496 48.9856 598.327 53.3493Z" fill="#FFE15A"/>
<path d="M610.001 540.103C709.183 540.103 789.585 459.701 789.585 360.519C789.585 261.338 709.183 180.935 610.001 180.935C510.82 180.935 430.417 261.338 430.417 360.519C430.417 459.701 510.82 540.103 610.001 540.103Z" fill="#41479B"/>
<path d="M455.894 268.649C447.421 282.834 440.878 298.25 436.555 314.619C536.109 307.127 683.38 334.978 777.113 425.932C783.232 410.315 787.27 393.679 788.786 376.288C691.998 294.829 558.19 265.862 455.894 268.649Z" fill="#F5F5F5"/>
<path d="M617.427 421.803L622.207 436.14L637.32 436.257C639.276 436.272 640.087 438.769 638.515 439.931L626.358 448.911L630.917 463.319C631.507 465.186 629.381 466.729 627.792 465.59L615.496 456.801L603.201 465.59C601.609 466.729 599.486 465.186 600.076 463.319L604.636 448.911L592.478 439.931C590.904 438.769 591.715 436.272 593.67 436.257L608.783 436.14L613.564 421.803C614.182 419.946 616.806 419.946 617.427 421.803Z" fill="#F5F5F5"/>
<path d="M676.168 458.892L678.226 465.061L684.73 465.112C685.572 465.117 685.923 466.193 685.244 466.694L680.011 470.556L681.971 476.759C682.226 477.562 681.313 478.226 680.626 477.735L675.334 473.954L670.042 477.735C669.358 478.226 668.443 477.562 668.697 476.759L670.658 470.556L665.424 466.694C664.748 466.195 665.096 465.119 665.938 465.112L672.443 465.061L674.5 458.892C674.77 458.091 675.901 458.091 676.168 458.892Z" fill="#F5F5F5"/>
<path d="M592.033 394.567L594.09 400.736L600.595 400.787C601.437 400.792 601.788 401.868 601.109 402.369L595.876 406.232L597.836 412.434C598.09 413.237 597.178 413.901 596.491 413.41L591.199 409.629L585.907 413.41C585.223 413.901 584.308 413.237 584.562 412.434L586.523 406.232L581.289 402.369C580.613 401.87 580.961 400.795 581.803 400.787L588.308 400.736L590.365 394.567C590.634 393.769 591.766 393.769 592.033 394.567Z" fill="#F5F5F5"/>
<path d="M478.092 387.085L480.149 393.255L486.654 393.306C487.496 393.311 487.847 394.386 487.168 394.887L481.935 398.75L483.895 404.952C484.15 405.756 483.237 406.42 482.55 405.929L477.258 402.147L471.966 405.929C471.282 406.42 470.367 405.756 470.621 404.952L472.582 398.75L467.348 394.887C466.672 394.389 467.02 393.313 467.862 393.306L474.367 393.255L476.424 387.085C476.696 386.287 477.825 386.287 478.092 387.085Z" fill="#F5F5F5"/>
<path d="M573.409 456.76L575.466 462.93L581.971 462.981C582.812 462.986 583.163 464.061 582.484 464.562L577.251 468.425L579.212 474.627C579.466 475.431 578.553 476.095 577.866 475.604L572.574 471.822L567.283 475.604C566.599 476.095 565.683 475.431 565.937 474.627L567.898 468.425L562.665 464.562C561.988 464.064 562.337 462.988 563.178 462.981L569.683 462.93L571.74 456.76C572.012 455.964 573.144 455.964 573.409 456.76Z" fill="#F5F5F5"/>
<path d="M520.963 382.781L522.646 387.826L527.966 387.869C528.653 387.874 528.94 388.754 528.388 389.164L524.109 392.322L525.713 397.393C525.922 398.049 525.174 398.593 524.612 398.191L520.284 395.099L515.956 398.191C515.394 398.593 514.649 398.049 514.855 397.393L516.459 392.322L512.179 389.164C511.628 388.754 511.91 387.874 512.602 387.869L517.922 387.826L519.605 382.781C519.821 382.127 520.744 382.127 520.963 382.781Z" fill="#F5F5F5"/>
<path d="M680.734 278.618L682.839 284.93L689.492 284.981C690.354 284.986 690.71 286.087 690.015 286.598L684.665 290.55L686.671 296.894C686.933 297.716 685.995 298.395 685.296 297.894L679.882 294.023L674.468 297.894C673.766 298.397 672.833 297.713 673.092 296.894L675.098 290.55L669.748 286.598C669.054 286.087 669.412 284.988 670.272 284.981L676.924 284.93L679.03 278.618C679.305 277.799 680.462 277.799 680.734 278.618Z" fill="#F5F5F5"/>
<path d="M485.421 351.914L487.104 356.959L492.424 357.003C493.111 357.008 493.398 357.888 492.846 358.297L488.566 361.455L490.171 366.526C490.379 367.182 489.632 367.726 489.07 367.325L484.742 364.232L480.414 367.325C479.852 367.726 479.106 367.182 479.312 366.526L480.917 361.455L476.637 358.297C476.085 357.888 476.368 357.01 477.059 357.003L482.379 356.959L484.063 351.914C484.279 351.261 485.202 351.261 485.421 351.914Z" fill="#F5F5F5"/>
<path d="M511.102 423.026L513.65 430.67L521.706 430.731C522.749 430.738 523.181 432.068 522.342 432.689L515.86 437.475L518.291 445.154C518.606 446.149 517.475 446.973 516.625 446.365L510.07 441.681L503.514 446.365C502.667 446.97 501.533 446.149 501.848 445.154L504.279 437.475L497.797 432.689C496.958 432.068 497.39 430.738 498.433 430.731L506.489 430.67L509.037 423.026C509.375 422.039 510.774 422.039 511.102 423.026Z" fill="#F5F5F5"/>
<path d="M708.925 460.494L710.527 465.302L715.595 465.341C716.251 465.346 716.524 466.182 715.997 466.571L711.921 469.582L713.449 474.414C713.647 475.039 712.935 475.556 712.399 475.174L708.277 472.227L704.152 475.174C703.618 475.556 702.906 475.039 703.102 474.414L704.63 469.582L700.554 466.571C700.027 466.182 700.3 465.346 700.956 465.341L706.024 465.302L707.626 460.494C707.837 459.871 708.719 459.871 708.925 460.494Z" fill="#F5F5F5"/>
<path d="M726.655 423.798L728.712 429.967L735.217 430.018C736.059 430.023 736.41 431.099 735.731 431.6L730.498 435.463L732.458 441.665C732.712 442.469 731.8 443.132 731.113 442.641L725.821 438.86L720.529 442.641C719.845 443.132 718.93 442.469 719.184 441.665L721.145 435.463L715.911 431.6C715.235 431.101 715.583 430.026 716.425 430.018L722.93 429.967L724.987 423.798C725.257 422.997 726.388 422.997 726.655 423.798Z" fill="#F5F5F5"/>
<g filter="url(#filter0_b_40_2857)">
<rect width="1220" height="722" fill="white" fill-opacity="0.25"/>
</g>
</g>
<defs>
<filter id="filter0_b_40_2857" x="-180" y="-180" width="1580" height="1082" filterUnits="userSpaceOnUse" color-interpolation-filters="sRGB">
<feFlood flood-opacity="0" result="BackgroundImageFix"/>
<feGaussianBlur in="BackgroundImageFix" stdDeviation="90"/>
<feComposite in2="SourceAlpha" operator="in" result="effect1_backgroundBlur_40_2857"/>
<feBlend mode="normal" in="SourceGraphic" in2="effect1_backgroundBlur_40_2857" result="shape"/>
</filter>
</defs>
</svg>
