<svg width="104" height="104" viewBox="0 0 104 104" fill="none" xmlns="http://www.w3.org/2000/svg">
<g clip-path="url(#clip0_40_2348)">
<path d="M102.208 86.0688H1.79416C0.803928 86.0688 0.000976562 85.2659 0.000976562 84.2756V19.724C0.000976562 18.7338 0.803928 17.9308 1.79416 17.9308H102.208C103.198 17.9308 104.001 18.7338 104.001 19.724V84.2756C104.001 85.2661 103.198 86.0688 102.208 86.0688Z" fill="#73AF00"/>
<path d="M51.069 27.4642L13.2764 50.4682C12.1286 51.1668 12.1286 52.8328 13.2764 53.5316L51.069 76.5358C51.6416 76.8844 52.3608 76.8844 52.9337 76.5358L90.7264 53.5318C91.8743 52.8332 91.8743 51.1672 90.7264 50.4684L52.9337 27.4642C52.361 27.1156 51.6416 27.1156 51.069 27.4642Z" fill="#FFE15A"/>
<path d="M52.0009 66.3447C59.9232 66.3447 66.3456 59.9224 66.3456 52C66.3456 44.0777 59.9232 37.6554 52.0009 37.6554C44.0786 37.6554 37.6562 44.0777 37.6562 52C37.6562 59.9224 44.0786 66.3447 52.0009 66.3447Z" fill="#41479B"/>
<path d="M39.6917 44.6617C39.0149 45.7947 38.4923 47.0261 38.147 48.3336C46.0991 47.7352 57.8627 49.9598 65.3498 57.225C65.8385 55.9776 66.1611 54.6487 66.2822 53.2596C58.551 46.7529 47.8628 44.4391 39.6917 44.6617Z" fill="#F5F5F5"/>
<path d="M52.5941 56.8952L52.976 58.0404L54.1832 58.0497C54.3394 58.051 54.4042 58.2504 54.2786 58.3432L53.3075 59.0605L53.6717 60.2114C53.7188 60.3605 53.549 60.4838 53.4221 60.3928L52.4399 59.6908L51.4578 60.3928C51.3307 60.4838 51.1611 60.3605 51.2082 60.2114L51.5724 59.0605L50.6013 58.3432C50.4755 58.2504 50.5403 58.051 50.6965 58.0497L51.9037 58.0404L52.2856 56.8952C52.3349 56.7469 52.5446 56.7469 52.5941 56.8952Z" fill="#F5F5F5"/>
<path d="M57.2864 59.8577L57.4507 60.3505L57.9703 60.3546C58.0375 60.355 58.0655 60.4409 58.0113 60.4809L57.5933 60.7894L57.7499 61.2849C57.7702 61.3491 57.6973 61.4021 57.6424 61.3629L57.2197 61.0608L56.797 61.3629C56.7424 61.4021 56.6693 61.3491 56.6896 61.2849L56.8462 60.7894L56.4282 60.4809C56.3741 60.4411 56.402 60.3552 56.4692 60.3546L56.9888 60.3505L57.1531 59.8577C57.1747 59.7937 57.265 59.7937 57.2864 59.8577Z" fill="#F5F5F5"/>
<path d="M50.5659 54.7196L50.7302 55.2124L51.2498 55.2165C51.3171 55.2169 51.3451 55.3028 51.2909 55.3428L50.8728 55.6513L51.0294 56.1468C51.0498 56.211 50.9768 56.264 50.922 56.2248L50.4993 55.9227L50.0766 56.2248C50.0219 56.264 49.9488 56.211 49.9691 56.1468L50.1257 55.6513L49.7077 55.3428C49.6537 55.303 49.6815 55.2171 49.7487 55.2165L50.2683 55.2124L50.4327 54.7196C50.4542 54.6558 50.5446 54.6558 50.5659 54.7196Z" fill="#F5F5F5"/>
<path d="M41.4651 54.1221L41.6294 54.6148L42.149 54.6189C42.2162 54.6193 42.2443 54.7052 42.19 54.7452L41.772 55.0538L41.9286 55.5492C41.9489 55.6134 41.876 55.6664 41.8212 55.6272L41.3985 55.3252L40.9758 55.6272C40.9211 55.6664 40.848 55.6134 40.8683 55.5492L41.0249 55.0538L40.6069 54.7452C40.5528 54.7054 40.5807 54.6195 40.6479 54.6189L41.1675 54.6148L41.3318 54.1221C41.3536 54.0583 41.4438 54.0583 41.4651 54.1221Z" fill="#F5F5F5"/>
<path d="M49.0786 59.6875L49.2429 60.1802L49.7625 60.1843C49.8298 60.1847 49.8578 60.2706 49.8036 60.3106L49.3855 60.6192L49.5421 61.1146C49.5624 61.1788 49.4895 61.2318 49.4347 61.1926L49.012 60.8906L48.5893 61.1926C48.5346 61.2318 48.4615 61.1788 48.4818 61.1146L48.6384 60.6192L48.2204 60.3106C48.1664 60.2708 48.1942 60.1849 48.2614 60.1843L48.781 60.1802L48.9454 59.6875C48.9671 59.6239 49.0575 59.6239 49.0786 59.6875Z" fill="#F5F5F5"/>
<path d="M44.8894 53.7782L45.0239 54.1812L45.4488 54.1846C45.5037 54.185 45.5266 54.2553 45.4826 54.288L45.1407 54.5403L45.2689 54.9453C45.2855 54.9977 45.2258 55.0412 45.1809 55.0091L44.8352 54.7621L44.4895 55.0091C44.4446 55.0412 44.3851 54.9977 44.4015 54.9453L44.5297 54.5403L44.1878 54.288C44.1438 54.2553 44.1663 54.185 44.2216 54.1846L44.6465 54.1812L44.781 53.7782C44.7982 53.726 44.872 53.726 44.8894 53.7782Z" fill="#F5F5F5"/>
<path d="M57.6511 45.458L57.8193 45.9621L58.3507 45.9662C58.4196 45.9666 58.448 46.0545 58.3925 46.0954L57.9652 46.411L58.1254 46.9178C58.1464 46.9834 58.0714 47.0377 58.0155 46.9976L57.5831 46.6885L57.1506 46.9976C57.0946 47.0379 57.02 46.9832 57.0407 46.9178L57.201 46.411L56.7736 46.0954C56.7182 46.0545 56.7468 45.9668 56.8155 45.9662L57.3469 45.9621L57.515 45.458C57.537 45.3926 57.6294 45.3926 57.6511 45.458Z" fill="#F5F5F5"/>
<path d="M42.0501 51.3127L42.1845 51.7157L42.6095 51.7191C42.6643 51.7195 42.6873 51.7898 42.6432 51.8225L42.3013 52.0748L42.4295 52.4798C42.4462 52.5322 42.3865 52.5757 42.3416 52.5436L41.9958 52.2966L41.6501 52.5436C41.6052 52.5757 41.5457 52.5322 41.5622 52.4798L41.6903 52.0748L41.3485 51.8225C41.3044 51.7898 41.327 51.7197 41.3822 51.7191L41.8071 51.7157L41.9416 51.3127C41.9589 51.2604 42.0326 51.2604 42.0501 51.3127Z" fill="#F5F5F5"/>
<path d="M44.1018 56.9928L44.3053 57.6034L44.9488 57.6083C45.0321 57.6089 45.0666 57.7151 44.9996 57.7647L44.4818 58.147L44.676 58.7604C44.7012 58.8398 44.6108 58.9057 44.543 58.8571L44.0193 58.4829L43.4957 58.8571C43.428 58.9055 43.3374 58.8398 43.3626 58.7604L43.5568 58.147L43.039 57.7647C42.972 57.7151 43.0065 57.6089 43.0898 57.6083L43.7333 57.6034L43.9368 56.9928C43.9639 56.914 44.0756 56.914 44.1018 56.9928Z" fill="#F5F5F5"/>
<path d="M59.9032 59.9857L60.0312 60.3698L60.436 60.3728C60.4884 60.3732 60.5102 60.44 60.4681 60.4711L60.1425 60.7116L60.2646 61.0976C60.2804 61.1475 60.2236 61.1888 60.1807 61.1583L59.8515 60.9229L59.522 61.1583C59.4793 61.1888 59.4225 61.1475 59.4381 61.0976L59.5602 60.7116L59.2346 60.4711C59.1925 60.44 59.2143 60.3732 59.2667 60.3728L59.6715 60.3698L59.7994 59.9857C59.8163 59.9359 59.8868 59.9359 59.9032 59.9857Z" fill="#F5F5F5"/>
<path d="M61.3193 57.0545L61.4837 57.5473L62.0032 57.5514C62.0705 57.5518 62.0985 57.6377 62.0443 57.6777L61.6262 57.9862L61.7829 58.4817C61.8032 58.5459 61.7302 58.5989 61.6754 58.5597L61.2527 58.2576L60.83 58.5597C60.7754 58.5989 60.7022 58.5459 60.7225 58.4817L60.8792 57.9862L60.4611 57.6777C60.4071 57.6379 60.4349 57.552 60.5022 57.5514L61.0217 57.5473L61.1861 57.0545C61.2076 56.9905 61.298 56.9905 61.3193 57.0545Z" fill="#F5F5F5"/>
</g>
<defs>
<clipPath id="clip0_40_2348">
<rect width="104" height="104" fill="white"/>
</clipPath>
</defs>
</svg>
